# xmcd CD database file
#
# Track frame offsets:
#	150
#	20234
#	41694
#	62548
#	79201
#	99298
#	131056
#	147132
#	167038
#	188357
#
# Disc length: 2882 seconds
#
# Revision: 2
# Processed by: cddbd v1.5.2PL0 Copyright (c) Steve Scherf et al.
# Submitted via: CDex 1.70beta2
#
DISCID=7f0b400a
DTITLE=Richard Clayderman - Mysterious eternity
DYEAR=2002
DGENRE=Easy Listening
TTITLE0=Danse avec ta vie
TTITLE1=Le chant des algues
TTITLE2=Quelques accords pour freiner la guerre
TTITLE3=Peur de la nuit
TTITLE4=La réponse de l'ange
TTITLE5=Mysterious Eternity
TTITLE6=J'aime les gens qui s'aiment
TTITLE7=Express train of my life
TTITLE8=Universal prayer
TTITLE9=End of the game
EXTD=YEAR: 2002
EXTT0=
EXTT1=
EXTT2=
EXTT3=
EXTT4=
EXTT5=
EXTT6=
EXTT7=
EXTT8=
EXTT9=
PLAYORDER=
